<svg xmlns="http://www.w3.org/2000/svg" width="1062.257" height="233.798" viewBox="0 0 1062.257 233.798">
  <g id="Group_7662" data-name="Group 7662" transform="translate(-189.9 -3362.516)">
    <g id="Group_7604" data-name="Group 7604" transform="translate(37.716 628.121)">
      <g id="Group_7603" data-name="Group 7603" transform="translate(152.184 2734.395)">
        <path id="Path_7277" data-name="Path 7277" d="M1114.663,326.384A76.149,76.149,0,0,0,988.78,275.111a33.645,33.645,0,0,1-35.808,5.127h0a34.282,34.282,0,0,1-20.06-30.768q-.047-2.119-.212-4.263c-2.876-37.457-33.514-67.666-71.006-70.051a76.276,76.276,0,0,0-81.151,76.037v.2a30.614,30.614,0,0,1-18.113,27.987l-4.047,1.812a29.829,29.829,0,0,1-32.269-4.813,76.445,76.445,0,0,0-19.245-12.842l-.222-.105c-.785-.363-1.579-.708-2.377-1.045-.3-.128-.6-.26-.905-.384-.624-.253-1.255-.491-1.886-.729-.491-.186-.982-.371-1.477-.547s-.984-.335-1.478-.5c-.649-.214-1.3-.424-1.955-.621-.381-.115-.765-.222-1.15-.33q-1.161-.33-2.331-.623c-.306-.077-.613-.148-.92-.22q-1.281-.3-2.579-.56c-.273-.056-.549-.107-.823-.158q-1.326-.249-2.664-.448c-.291-.044-.585-.085-.877-.126q-1.279-.175-2.567-.307-.557-.059-1.115-.108c-.352-.031-.7-.076-1.051-.1s-.724-.03-1.086-.051q-.963-.059-1.93-.092c-.6-.021-1.206-.038-1.805-.044-.306,0-.608-.021-.913-.021-.409,0-.813.021-1.221.028-.526.008-1.05.018-1.572.036-.775.028-1.546.074-2.314.125-.457.031-.915.057-1.368.1-.866.072-1.725.168-2.582.269-.353.043-.71.077-1.061.123-1.055.141-2.1.307-3.139.491-.151.026-.306.046-.455.074a75.54,75.54,0,0,0-10.84,2.827l-.039.013q-1.71.586-3.384,1.252l-.264.11q-1.562.623-3.09,1.317l-.343.159q-1.5.687-2.963,1.437l-.31.163q-1.491.774-2.942,1.608c-.072.043-.145.084-.217.125q-1.525.885-3,1.836l-.046.03a76.547,76.547,0,0,0-9.018,6.784c-.386.338-.79.65-1.189.967a33.683,33.683,0,0,1-34.352,3.954h0a34.282,34.282,0,0,1-20.06-30.768q-.047-2.119-.21-4.263a75.829,75.829,0,0,0-21.932-47.569l-.036-.036q-1.067-1.074-2.177-2.1c-.094-.087-.186-.177-.279-.264-.665-.613-1.344-1.211-2.03-1.8-.177-.151-.35-.307-.527-.457-.616-.519-1.245-1.025-1.876-1.524-.26-.207-.517-.416-.78-.618-.567-.437-1.143-.861-1.723-1.281-.338-.248-.677-.5-1.02-.741-.521-.366-1.051-.719-1.582-1.073-.414-.276-.826-.555-1.245-.823-.481-.307-.972-.6-1.46-.9s-.958-.585-1.442-.866c-.452-.26-.908-.509-1.365-.761-.534-.294-1.068-.59-1.608-.871-.43-.223-.866-.437-1.3-.652-.578-.287-1.156-.573-1.744-.846-.414-.194-.833-.376-1.252-.562-.614-.271-1.23-.542-1.853-.8-.411-.169-.826-.328-1.24-.491-.637-.248-1.273-.494-1.917-.726-.422-.153-.849-.294-1.275-.439-.644-.219-1.288-.435-1.938-.637-.44-.136-.885-.263-1.329-.391-.642-.186-1.284-.37-1.933-.539-.471-.123-.948-.235-1.421-.35-.628-.15-1.253-.3-1.884-.434-.511-.108-1.025-.205-1.539-.3-.6-.117-1.207-.23-1.815-.332-.555-.092-1.115-.171-1.674-.25s-1.143-.163-1.718-.232c-.606-.072-1.216-.13-1.825-.187-.361-.033-.718-.082-1.079-.11-.156-.013-.309-.013-.465-.025-.241-.016-.48-.048-.723-.062-.619-.039-1.232-.044-1.85-.069-.593-.025-1.189-.056-1.779-.066-.8-.015-1.592,0-2.385.01-.618.008-1.237.007-1.853.03-.736.028-1.465.084-2.2.133-.662.044-1.326.076-1.983.135-.629.059-1.248.146-1.873.218-.747.089-1.5.164-2.237.273-.3.044-.6.107-.9.156a75.244,75.244,0,0,0-10.27,2.38c-.125.038-.253.069-.378.108-1.023.32-2.03.675-3.036,1.036-.232.084-.468.158-.7.243-.968.36-1.919.749-2.866,1.147-.256.107-.517.207-.772.317-.938.4-1.859.836-2.778,1.278-.251.12-.506.235-.756.358-.913.452-1.812.926-2.7,1.413-.243.133-.488.261-.729.4-.892.5-1.769,1.02-2.638,1.552-.227.14-.455.276-.678.416q-1.313.825-2.589,1.7c-.2.14-.406.278-.608.419q-1.294.9-2.543,1.861c-.176.135-.352.268-.527.4q-1.274.991-2.505,2.032l-.429.366q-1.262,1.084-2.475,2.219c-.105.1-.21.2-.314.3q-1.254,1.188-2.456,2.431c-.061.062-.12.126-.179.189q-1.254,1.308-2.448,2.674l-.023.026a75.849,75.849,0,0,0-18.7,50.181A30.616,30.616,0,0,1,398.5,279.376l-4.047,1.812a29.829,29.829,0,0,1-32.269-4.813,76.038,76.038,0,0,0-101.531-1.058,32.677,32.677,0,0,1-34.9,5.222l-.563-.251a34.321,34.321,0,0,1-20.171-30.814q-.042-1.892-.177-3.8c-2.636-37.2-32.649-67.484-69.821-70.426a76.2,76.2,0,1,0,43.766,133.442,33.643,33.643,0,0,1,35.806-5.127,34.281,34.281,0,0,1,20.061,30.766,78.73,78.73,0,0,0,.586,8.006A76.2,76.2,0,0,0,387.02,332.6v-.2a30.615,30.615,0,0,1,18.115-27.987l4.047-1.812a29.829,29.829,0,0,1,32.269,4.813,76.429,76.429,0,0,0,19.234,12.835l.227.11c.788.365,1.587.71,2.388,1.048.3.126.59.255.889.376.628.256,1.265.5,1.9.738.486.184.974.368,1.465.542s.99.337,1.487.5c.646.214,1.291.422,1.943.618.388.117.775.225,1.166.335q1.151.328,2.316.619c.31.077.621.149.933.223q1.276.3,2.566.559.416.081.833.158,1.323.249,2.661.448c.291.044.581.085.874.126q1.276.175,2.567.307.559.059,1.12.108c.348.031.693.076,1.043.1s.723.031,1.084.053c.646.039,1.291.071,1.94.092.6.021,1.2.036,1.8.044.307,0,.613.021.92.021.417,0,.828-.021,1.242-.028.506-.008,1.012-.016,1.516-.034.792-.03,1.58-.076,2.367-.128.435-.028.872-.053,1.3-.089.9-.077,1.8-.176,2.7-.283.31-.038.623-.066.933-.107a75.741,75.741,0,0,0,10.9-2.272c.057-.016.115-.036.171-.053q1.671-.483,3.307-1.04c.141-.048.281-.1.422-.149q1.518-.525,3-1.11c.161-.062.317-.128.476-.192q1.471-.591,2.909-1.242c.143-.064.286-.13.429-.2q1.483-.68,2.932-1.424l.287-.146q1.569-.813,3.1-1.7l.02-.01a76.589,76.589,0,0,0,11.605-8.223,33.882,33.882,0,0,1,56.158,25.361,79.178,79.178,0,0,0,.588,8.006c.082.652.228,1.284.327,1.933.115.741.238,1.478.375,2.214q.49,2.681,1.171,5.293c.046.177.09.356.14.535a76.538,76.538,0,0,0,44.119,50.53c.1.043.205.09.309.135q1.725.717,3.487,1.35,1.493.54,3.011,1.02c.826.258,1.654.5,2.492.731q2.07.572,4.184,1.03c.6.128,1.2.243,1.807.355,1.656.315,3.328.583,5.02.785.131.015.258.046.391.061.391.044.777.061,1.168.1.478.046.951.108,1.431.146.256.02.511.021.767.039.792.054,1.579.09,2.365.122.665.026,1.329.051,1.991.061.741.01,1.477,0,2.214-.01.695-.011,1.39-.021,2.081-.051s1.37-.076,2.053-.123c.731-.051,1.46-.1,2.186-.172.624-.061,1.244-.14,1.864-.217.77-.094,1.542-.189,2.306-.307.558-.085,1.112-.189,1.667-.287.811-.145,1.621-.287,2.424-.457.486-.1.968-.223,1.45-.335.859-.2,1.715-.4,2.563-.626.4-.11.8-.233,1.206-.348.912-.261,1.822-.527,2.719-.821.31-.1.618-.217.928-.324.976-.333,1.946-.675,2.9-1.046.2-.077.393-.164.59-.243,1.058-.421,2.109-.856,3.142-1.322.057-.026.115-.056.172-.082a76.268,76.268,0,0,0,44.755-69.633,30.613,30.613,0,0,1,18.113-27.946l4.047-1.812c10.776-4.819,23.557-3.152,32.268,4.813a76.04,76.04,0,0,0,100.976,1.542,34.049,34.049,0,0,1,36.128-5.406h0a34.283,34.283,0,0,1,20.06,30.77q.047,2.129.214,4.282a76.2,76.2,0,1,0,151.9-12.226Z" transform="translate(-52.654 -174.998)" fill="#c5dabe"/>
        <g id="Group_7593" data-name="Group 7593" transform="translate(15.508 15.508)">
          <circle id="Ellipse_30" data-name="Ellipse 30" cx="56.305" cy="56.305" r="56.305" transform="translate(0.308 112.336) rotate(-85.348)" fill="#fff"/>
        </g>
        <line id="Line_1" data-name="Line 1" y1="21.81" transform="translate(258.174 42.036)" fill="none" stroke="#303030" stroke-linecap="round" stroke-miterlimit="10" stroke-width="2" stroke-dasharray="0 4"/>
        <line id="Line_2" data-name="Line 2" y1="21.81" transform="translate(622.135 42.036)" fill="none" stroke="#303030" stroke-linecap="round" stroke-miterlimit="10" stroke-width="2" stroke-dasharray="0 4"/>
        <line id="Line_3" data-name="Line 3" y1="21.81" transform="translate(986.095 42.036)" fill="none" stroke="#303030" stroke-linecap="round" stroke-miterlimit="10" stroke-width="2" stroke-dasharray="0 4"/>
        <line id="Line_4" data-name="Line 4" y2="21.81" transform="translate(76.194 169.951)" fill="none" stroke="#303030" stroke-linecap="round" stroke-miterlimit="10" stroke-width="2" stroke-dasharray="0 4"/>
        <line id="Line_5" data-name="Line 5" y2="21.81" transform="translate(440.154 169.951)" fill="none" stroke="#303030" stroke-linecap="round" stroke-miterlimit="10" stroke-width="2" stroke-dasharray="0 4"/>
        <line id="Line_6" data-name="Line 6" y2="21.81" transform="translate(804.115 169.951)" fill="none" stroke="#303030" stroke-linecap="round" stroke-miterlimit="10" stroke-width="2" stroke-dasharray="0 4"/>
        <g id="Group_7595" data-name="Group 7595" transform="translate(201.869 101.3)">
          <circle id="Ellipse_31" data-name="Ellipse 31" cx="56.305" cy="56.305" r="56.305" transform="translate(-0.053 0.305)" fill="#fff"/>
        </g>
        <g id="Group_7596" data-name="Group 7596" transform="translate(375.476 11.515)">
          <circle id="Ellipse_32" data-name="Ellipse 32" cx="56.305" cy="56.305" r="56.305" transform="translate(0.34 111.214) rotate(-80.682)" fill="#fff"/>
        </g>
        <g id="Group_7598" data-name="Group 7598" transform="translate(739.421 11.515)">
          <circle id="Ellipse_33" data-name="Ellipse 33" cx="56.305" cy="56.305" r="56.305" transform="translate(0.395 111.214) rotate(-80.682)" fill="#fff"/>
        </g>
        <g id="Group_7600" data-name="Group 7600" transform="translate(565.829 101.3)">
          <circle id="Ellipse_34" data-name="Ellipse 34" cx="56.305" cy="56.305" r="56.305" transform="translate(-0.014 0.305)" fill="#fff"/>
        </g>
        <g id="Group_7602" data-name="Group 7602" transform="translate(929.774 101.3)">
          <circle id="Ellipse_35" data-name="Ellipse 35" cx="56.305" cy="56.305" r="56.305" transform="translate(0.041 0.305)" fill="#fff"/>
        </g>
      </g>
    </g>
    <g id="_1" data-name="1" transform="translate(215.416 3390.91)">
      <path id="Path_7427" data-name="Path 7427" d="M62.3,20h-10V16.2a1.538,1.538,0,0,0-1.5-1.5H35.3a1.538,1.538,0,0,0-1.5,1.5V20h-10a1.538,1.538,0,0,0-1.5,1.5V75.3A6.7,6.7,0,0,0,29,82H57.3A6.7,6.7,0,0,0,64,75.3V21.5A1.9,1.9,0,0,0,62.3,20ZM36.8,17.7H49.3v2.1H36.8ZM55.1,23v2.3H31V23Zm5.7,52.3A3.691,3.691,0,0,1,57.1,79H53.8l7-7Zm0-7.6L49.5,79H28.9a3.757,3.757,0,0,1-3.7-3.7V23H28v3.8a1.538,1.538,0,0,0,1.5,1.5H56.6a1.538,1.538,0,0,0,1.5-1.5V23h2.7V67.7ZM80.6,20h-3V14.2a1.538,1.538,0,0,0-1.5-1.5H68.3a1.538,1.538,0,0,0-1.5,1.5V71a.9.9,0,0,0,.1.5L70.6,83v3.1a1.5,1.5,0,0,0,3,0V83l3.8-11.5c0-.2.1-.3.1-.5V23H79V39.4a1.5,1.5,0,0,0,3,0V21.5A1.391,1.391,0,0,0,80.6,20ZM72.1,78l-2-6.1h4.1Zm2.5-9.1H69.8V23h4.8Zm0-48.9H69.8V15.7h4.8Z" fill="#5b8f56"/>
      <path id="Path_7428" data-name="Path 7428" d="M51.9,68.1H34.7a1.5,1.5,0,0,0,0,3H51.9a1.5,1.5,0,0,0,0-3Zm5.6-25.3a2.075,2.075,0,0,0-.6-1l-4.4-3.1a1.552,1.552,0,0,0-2.1.3L41.2,51.6l-6.2-6a1.417,1.417,0,0,0-2,0l-4,3.6a1.606,1.606,0,0,0-.5,1.1,1.5,1.5,0,0,0,.4,1.1L40.7,63.7a1.606,1.606,0,0,0,1.1.5h.1a1.524,1.524,0,0,0,1.1-.6L57.2,44A1.383,1.383,0,0,0,57.5,42.8ZM32.2,50.4,34,48.8,40.4,55a1.594,1.594,0,0,0,1.2.4,1.738,1.738,0,0,0,1.1-.6L52,42l1.9,1.3-12.2,17-9.5-9.9Z" fill="#5b8f56"/>
    </g>
    <path id="_2" data-name="2" d="M104.031,16.42H71.241c-1.677,0-3.037,1.015-3.037,2.268s1.359,2.274,3.037,2.274h32.791c4.178,0,7.571,2.534,7.571,5.651v47.7c0,3.117-3.393,5.651-7.571,5.651H73.148c-4.174,0-7.574-2.534-7.574-5.651V26.232c0-1.253-1.356-2.271-3.037-2.271S59.5,24.979,59.5,26.232V74.313c0,5.619,6.119,10.192,13.648,10.192h30.884c7.528,0,13.648-4.573,13.648-10.192v-47.7c0-5.619-6.119-10.192-13.648-10.192ZM88.588,45.475c1.846,0,3.339,1.121,3.339,2.494,0,1.258,1.363,2.271,3.037,2.271S98,49.227,98,47.969c0-3.08-2.681-5.674-6.38-6.623V40.059c0-1.255-1.359-2.268-3.037-2.268s-3.037,1.012-3.037,2.268v1.287c-3.7.949-6.372,3.543-6.372,6.623,0,3.878,4.212,7.032,9.409,7.032,1.846,0,3.339,1.121,3.339,2.494s-1.493,2.494-3.339,2.494-3.332-1.121-3.332-2.494c0-1.253-1.371-2.268-3.04-2.268s-3.037,1.015-3.037,2.268c0,3.08,2.673,5.674,6.372,6.623V65.4c0,1.258,1.359,2.274,3.037,2.274s3.037-1.015,3.037-2.274V64.118c3.7-.949,6.38-3.543,6.38-6.623,0-3.878-4.22-7.032-9.416-7.032-1.838,0-3.332-1.118-3.332-2.494S86.749,45.475,88.588,45.475Zm18.235-17.7c0-1.254-1.361-2.271-3.04-2.271H73.4c-1.679,0-3.04,1.017-3.04,2.271s1.363,2.265,3.04,2.265h30.386c1.677,0,3.04-1.01,3.04-2.265Z" transform="translate(357.216 3468.085)" fill="#5b8f56"/>
    <g id="_8678784_mac_computer_icon" data-name="8678784_mac_computer_icon" transform="translate(594.45 3404.495)">
      <path id="Path_7429" data-name="Path 7429" d="M0,0H78.532V73.131H0Z" fill="none"/>
      <path id="Path_7430" data-name="Path 7430" d="M46.719,56.788V63.96l7.453,3.586v3.586H24.36l-.015-3.572,7.468-3.6V56.788H5.7A3.792,3.792,0,0,1,3.07,55.721,3.509,3.509,0,0,1,2,53.177V6.611A3.681,3.681,0,0,1,5.7,3H72.835a3.65,3.65,0,0,1,3.7,3.611V53.177a3.681,3.681,0,0,1-3.7,3.611ZM9.453,42.444v7.172H69.079V42.444Z" transform="translate(0 0)" fill="#5b8f56"/>
    </g>
    <path id="_4" data-name="4" d="M72.077,73.2l-6.608-6.853A7.669,7.669,0,0,0,59.972,64H28.487a7.693,7.693,0,0,0-5.5,2.347L16.381,73.2H0v36.813H8.885a4.509,4.509,0,0,0,4.428-4.564h1.263l11.744,11a11.87,11.87,0,0,0,14.66.547,8.276,8.276,0,0,0,5.706,2.289,8.385,8.385,0,0,0,6.775-3.455,7.611,7.611,0,0,0,8.885-2.419l3.637-4.65a8.027,8.027,0,0,0,1.513-3.311h8.038a4.518,4.518,0,0,0,4.428,4.564h8.885V73.2ZM6.664,105.405a2.305,2.305,0,0,1,0-4.607,2.305,2.305,0,0,1,0,4.607Zm54.141-.993-3.623,4.636a1.093,1.093,0,0,1-1.569.173l-3.318-2.793-4.165,5.255a1.811,1.811,0,0,1-2.5.346l-5.109-4.535-2.166,2.764a5.4,5.4,0,0,1-7.677.95L17.172,98.538H13.327V80.1h5.817l8.565-8.868c.278-.115.514-.216.791-.331h7.871L31,76.007a10.574,10.574,0,0,0-.611,14.584c2.055,2.332,8.5,5.931,14.091.633l1.138-1.08,15.021,12.64a1.207,1.207,0,0,1,.167,1.627ZM75.52,98.538H65.913a7.931,7.931,0,0,0-1.069-1.109L50.587,85.423l1.735-1.641a2.361,2.361,0,0,0,.139-3.254l-1.513-1.684a2.175,2.175,0,0,0-3.137-.144l-7.663,7.285a3.44,3.44,0,0,1-4.8,0,3.5,3.5,0,0,1,.167-4.881l9.107-8.653a5.416,5.416,0,0,1,3.748-1.512l11.62-.029a1.019,1.019,0,0,1,.764.331l8.565,8.868H75.52Zm6.664,6.867a2.305,2.305,0,1,1,2.221-2.3A2.27,2.27,0,0,1,82.183,105.405Z" transform="translate(767.889 3427.307)" fill="#5b8f56"/>
    <g id="Group_7661" data-name="Group 7661" transform="translate(1153.716 3494.121)">
      <path id="Path_7296" data-name="Path 7296" d="M542.38,211.285a4.39,4.39,0,0,0-.924-7.071l3.185-6.58H528.249l3.184,6.58a4.389,4.389,0,0,0-.922,7.071c-7.91,6.054-10.18,15.64-10.18,25.6V244.7H546.7v2.93h23.632v-29.3H548.5A23.152,23.152,0,0,0,542.38,211.285Zm-8.865-1.738a1.465,1.465,0,0,1,0-2.93h5.86a1.465,1.465,0,0,1,0,2.93Zm6.453-8.984-1.512,3.124h-4.022l-1.512-3.124Zm-16.707,41.212v-4.891c0-11.932,3.49-19.921,10.667-24.407h5.034a20.166,20.166,0,0,1,7.737,8.752v20.546ZM567.4,244.7H549.628v-5.859H567.4Zm-17.774-8.788v-5.86H567.4v5.86ZM567.4,221.266v5.859H549.628v-5.859Z" transform="translate(-520.331 -197.633)" fill="#5b8d57"/>
      <path id="Path_7297" data-name="Path 7297" d="M534.969,222.685a1.466,1.466,0,0,1,1.464,1.464h2.93a4.4,4.4,0,0,0-2.93-4.143v-1.716H533.5v1.716a4.395,4.395,0,0,0,1.466,8.538,1.464,1.464,0,1,1-1.466,1.464h-2.929a4.4,4.4,0,0,0,2.929,4.143v1.717h2.93v-1.717a4.394,4.394,0,0,0-1.464-8.537,1.465,1.465,0,1,1,0-2.93Z" transform="translate(-518.855 -194.658)" fill="#5b8d57"/>
      <path id="Path_7431" data-name="Path 7431" d="M542.38,211.285a4.39,4.39,0,0,0-.924-7.071l3.185-6.58H528.249l3.184,6.58a4.389,4.389,0,0,0-.922,7.071c-7.91,6.054-10.18,15.64-10.18,25.6V244.7H546.7v2.93h23.632v-29.3H548.5A23.152,23.152,0,0,0,542.38,211.285Zm-8.865-1.738a1.465,1.465,0,0,1,0-2.93h5.86a1.465,1.465,0,0,1,0,2.93Zm6.453-8.984-1.512,3.124h-4.022l-1.512-3.124Zm-16.707,41.212v-4.891c0-11.932,3.49-19.921,10.667-24.407h5.034a20.166,20.166,0,0,1,7.737,8.752v20.546ZM567.4,244.7H549.628v-5.859H567.4Zm-17.774-8.788v-5.86H567.4v5.86ZM567.4,221.266v5.859H549.628v-5.859Z" transform="translate(-520.331 -197.633)" fill="#5b8d57"/>
    </g>
    <path id="_5" data-name="5" d="M62.78,16.475c0,8.546-7.748,15.475-17.3,15.475s-17.3-6.928-17.3-15.475S35.918,1,45.475,1s17.3,6.928,17.3,15.475ZM56.028,9.852a1.707,1.707,0,0,0-2.228,0L42.329,20.113,37.15,15.479a1.71,1.71,0,0,0-2.228,0,1.306,1.306,0,0,0,0,1.992L41.215,23.1a1.707,1.707,0,0,0,2.228,0L56.028,11.844a1.3,1.3,0,0,0,0-1.992ZM54.914,32.7v4.873H40.756l-.321.02a2.2,2.2,0,0,0-2.039,2.09l-.016.433c-.254,3.409-3.488,6.022-7.306,5.905s-6.844-2.922-6.837-6.338l-.022-.287a2.289,2.289,0,0,0-2.338-1.823H7.719V18.585l.019-.405a5.3,5.3,0,0,1,5.487-4.519H25.263a16.7,16.7,0,0,1,1.328-4.22H13.225l-.579.014C7.233,9.729,3,13.736,3,18.585V50.941l.016.518c.307,4.841,4.787,8.627,10.21,8.626H49.408l.579-.014c5.414-.275,9.647-4.281,9.647-9.13V29.67A20.623,20.623,0,0,1,54.914,32.7ZM7.719,50.941V41.8H19.754l.135.529c1.348,4.658,6.047,7.911,11.427,7.912l.629-.014C37.31,49.966,41.8,46.5,42.879,41.8H54.914v9.144l-.019.4a5.3,5.3,0,0,1-5.487,4.521H13.225l-.453-.017a5.181,5.181,0,0,1-5.053-4.907Z" transform="translate(961.716 3405.036)" fill="#5b8f56"/>
  </g>
</svg>
